<svg id="Layer_1" data-name="Layer 1" xmlns="http://www.w3.org/2000/svg" viewBox="0 0 662.85 669.07"><defs><style>.cls-1{fill:#b3964e;}</style></defs><path class="cls-1" d="M412,434.84a316.56,316.56,0,0,1-80.55,211.88c-107.23-120.44-107.23-303.33,0-423.78A316.54,316.54,0,0,1,412,434.82v0Z"/><path class="cls-1" d="M38.55,357.34c-.15,0-.27-.08-.43-.11-17.15-2.76-25-10.54-25-10.54a36.88,36.88,0,0,0,0,8.12C22,507.74,139.13,632,288.84,652.11A354.18,354.18,0,0,1,214.9,442.93,316.33,316.33,0,0,0,38.55,357.34Z"/><path class="cls-1" d="M48.84,322.11l.36.05C56.49,172.79,180.29,53.51,331.44,53.51s275,119.28,282.24,268.65l.36-.05c20.67-3.16,35.16-22.38,31.45-43C618.64,130.07,488.26,17,331.44,17,174.85,17,44.63,129.74,17.51,278.49a37.52,37.52,0,0,0,31.33,43.62Z"/><path class="cls-1" d="M649.78,346.69s-7.9,7.78-25,10.54c-.17,0-.3.09-.46.12a316.27,316.27,0,0,0-176.12,85.43A352.23,352.23,0,0,1,374.09,652.1C523.78,632,640.92,507.72,649.81,354.81h0a40.23,40.23,0,0,0,0-8.12Z"/><path class="cls-1" d="M123.3,334.53c0-114.94,93.18-208.12,208.12-208.12s208.13,93.18,208.13,208.12c0,2.57-.1,5.12-.19,7.67a351.62,351.62,0,0,1,38.17-12.49C574.12,196.87,465.08,89.85,331.44,89.85S88.76,196.87,85.35,329.71a349.61,349.61,0,0,1,38.14,12.48c-.09-2.55-.19-5.09-.19-7.66Z"/></svg>