<?xml version="1.0" encoding="utf-8"?>
<!-- Generator: Adobe Illustrator 24.3.0, SVG Export Plug-In . SVG Version: 6.00 Build 0)  -->
<svg version="1.1" xmlns="http://www.w3.org/2000/svg" xmlns:xlink="http://www.w3.org/1999/xlink" x="0px" y="0px"
	 viewBox="0 0 500 273" style="enable-background:new 0 0 500 273;" xml:space="preserve">
<style type="text/css">
	.st0{display:none;}
	.st1{display:inline;}
	.st2{opacity:0.46;fill:#00FFFF;}
	.st3{fill:#FFFFFF;}
	.st4{fill:#E6E6E6;}
	.st5{fill:#005851;}
	.st6{fill:#C3CAC8;}
	.st7{fill:none;stroke:#000000;stroke-miterlimit:10;}
	.st8{fill:none;stroke:#FFFFFF;stroke-miterlimit:10;}
	.st9{opacity:0.7;fill:#005851;}
	.st10{fill:#B49651;}
	.st11{fill:none;stroke:#005850;stroke-miterlimit:10;}
	.st12{fill:none;stroke:#B49751;stroke-miterlimit:10;}
	.st13{clip-path:url(#SVGID_14_);}
	.st14{fill:#94A3A1;stroke:#94A3A1;stroke-width:0.2835;stroke-miterlimit:10;}
	.st15{fill:none;stroke:#005851;stroke-miterlimit:10;}
	.st16{fill:#B49751;}
	.st17{opacity:0.2;fill:#C3CAC8;}
	.st18{fill:none;stroke:#6C8480;stroke-miterlimit:10;}
	.st19{opacity:0.58;fill:url(#SVGID_29_);}
	.st20{opacity:0.58;fill:url(#SVGID_30_);}
	.st21{clip-path:url(#SVGID_32_);fill:#FFFFFF;}
	.st22{clip-path:url(#SVGID_44_);}
	.st23{opacity:0.58;fill:url(#SVGID_47_);}
	.st24{fill:none;stroke:#FFFFFF;stroke-linecap:round;stroke-linejoin:round;stroke-miterlimit:10;}
	.st25{clip-path:url(#SVGID_51_);fill:#FFFFFF;}
	.st26{fill:#416C67;}
	.st27{fill:#C1A76E;}
	.st28{fill:#6C8480;}
	.st29{fill:#CDB88A;}
	.st30{fill:#94A3A1;}
	.st31{fill:#DBCCAC;}
	.st32{fill:#EAE1D0;}
	.st33{fill:none;stroke:#FFFFFF;stroke-width:0.5;stroke-linecap:round;stroke-linejoin:round;stroke-miterlimit:10;}
	.st34{fill-rule:evenodd;clip-rule:evenodd;fill:#12493A;stroke:#12493A;stroke-width:0.25;stroke-miterlimit:10;}
	.st35{fill-rule:evenodd;clip-rule:evenodd;fill:#FFFFFF;}
	.st36{fill-rule:evenodd;clip-rule:evenodd;fill:#FFFFFF;stroke:#FFFFFF;stroke-width:0.5;stroke-miterlimit:10;}
	.st37{fill:none;stroke:#C3CAC8;stroke-miterlimit:10;}
	.st38{opacity:0.2;}
	.st39{fill:#B29758;}
</style>
<g id="Wireframe" class="st0">
</g>
<g id="Block">
</g>
<g id="Design_Elements">
</g>
<g id="Text">
	<path class="st10" d="M266.58,96.93c0,17.36-6.25,33.76-17.67,46.61c-23.52-26.5-23.52-66.73,0-93.23
		C260.33,63.16,266.58,79.56,266.58,96.93L266.58,96.93z M184.66,79.88c-0.04-0.01-0.06-0.02-0.09-0.02
		c-3.76-0.61-5.5-2.32-5.5-2.32c-0.1,1.06,0,1.79,0,1.79c1.95,33.65,27.66,60.98,60.49,65.4c-10.45-13.53-15.85-29.72-16.22-46.02
		C212.61,88.4,199.17,81.89,184.66,79.88 M186.91,72.13l0.08,0.01c1.6-32.86,28.76-59.1,61.91-59.1s60.31,26.24,61.91,59.1
		c0.03,0,0.05-0.01,0.08-0.01c4.53-0.7,7.71-4.92,6.9-9.45C311.91,29.88,283.31,5,248.91,5c-34.35,0-62.91,24.81-68.86,57.54
		C179.21,67.09,182.35,71.43,186.91,72.13 M318.74,77.54c0,0-1.73,1.71-5.5,2.32c-0.04,0-0.06,0.02-0.1,0.02
		c-14.5,2.01-27.92,8.5-38.64,18.79c-0.37,16.89-6.05,32.88-16.24,46.05c32.84-4.43,58.53-31.76,60.48-65.4c0,0,0,0,0,0
		C318.76,79.2,318.83,78.49,318.74,77.54 M203.25,74.86c0-25.29,20.44-45.79,45.65-45.79c25.22,0,45.66,20.5,45.66,45.79
		c0,0.57-0.02,1.13-0.04,1.69c2.73-1.07,5.52-2,8.37-2.75c-0.75-29.22-24.67-52.77-53.98-52.77c-29.31,0-53.24,23.55-53.98,52.77
		c2.85,0.75,5.63,1.68,8.37,2.75C203.27,75.98,203.25,75.43,203.25,74.86"/>
	<g>
		<path class="st3" d="M41.78,269.2H30.42l-1.95-13H14.65l-1.95,13H2.36l11.47-71.67h16.48L41.78,269.2z M16.08,246.47h10.85
			l-5.43-36.24L16.08,246.47z"/>
		<path class="st3" d="M103.83,229.27h15.77V252c0,11.47-5.73,18.02-16.79,18.02c-11.06,0-16.79-6.55-16.79-18.02v-37.27
			c0-11.47,5.73-18.02,16.79-18.02c11.06,0,16.79,6.55,16.79,18.02v6.96h-10.65v-7.68c0-5.12-2.25-7.06-5.84-7.06
			c-3.58,0-5.84,1.95-5.84,7.06v38.7c0,5.12,2.25,6.96,5.84,6.96c3.58,0,5.84-1.84,5.84-6.96v-13.21h-5.12V229.27z"/>
		<path class="st3" d="M190.34,269.2c-0.61-1.84-1.02-2.97-1.02-8.81v-11.26c0-6.65-2.25-9.11-7.37-9.11h-3.89v29.18h-11.26v-71.67
			h17c11.67,0,16.69,5.43,16.69,16.48v5.63c0,7.37-2.35,12.18-7.37,14.54c5.63,2.35,7.47,7.78,7.47,15.26v11.06
			c0,3.48,0.1,6.04,1.23,8.7H190.34z M178.06,207.77v22.01h4.4c4.2,0,6.76-1.84,6.76-7.58v-7.06c0-5.12-1.74-7.37-5.73-7.37H178.06z
			"/>
		<path class="st3" d="M247.88,197.53h11.26v71.67h-11.26V197.53z"/>
		<path class="st3" d="M322.42,196.71c10.96,0,16.59,6.55,16.59,18.02v2.25h-10.65v-2.97c0-5.12-2.05-7.06-5.63-7.06
			c-3.58,0-5.63,1.95-5.63,7.06c0,14.74,22.01,17.51,22.01,37.99c0,11.47-5.73,18.02-16.79,18.02s-16.79-6.55-16.79-18.02v-4.4
			h10.65v5.12c0,5.12,2.25,6.96,5.84,6.96c3.58,0,5.84-1.84,5.84-6.96c0-14.74-22.01-17.51-22.01-37.99
			C305.83,203.26,311.46,196.71,322.42,196.71z"/>
		<path class="st3" d="M384.56,214.73c0-11.47,6.04-18.02,17.1-18.02s17.1,6.55,17.1,18.02V252c0,11.47-6.04,18.02-17.1,18.02
			s-17.1-6.55-17.1-18.02V214.73z M395.83,252.71c0,5.12,2.25,7.06,5.84,7.06c3.58,0,5.84-1.95,5.84-7.06v-38.7
			c0-5.12-2.25-7.06-5.84-7.06c-3.58,0-5.84,1.95-5.84,7.06V252.71z"/>
		<path class="st3" d="M465.96,197.53h11.26v61.43h18.53v10.24h-29.79V197.53z"/>
	</g>
</g>
</svg>
